<?xml version="1.0" encoding="UTF-8" standalone="no"?>
<!DOCTYPE svg PUBLIC "-//W3C//DTD SVG 1.1//EN"
 "http://www.w3.org/Graphics/SVG/1.1/DTD/svg11.dtd">
<!-- Generated by graphviz version 2.38.0 (20140413.2041)
 -->
<!-- Title: SRRender.h Pages: 1 -->
<svg width="188pt" height="92pt"
 viewBox="0.00 0.00 188.00 92.00" xmlns="http://www.w3.org/2000/svg" xmlns:xlink="http://www.w3.org/1999/xlink">
<g id="graph0" class="graph" transform="scale(1 1) rotate(0) translate(4 88)">
<title>SRRender.h</title>
<polygon fill="white" stroke="none" points="-4,4 -4,-88 184,-88 184,4 -4,4"/>
<!-- Node1 -->
<g id="node1" class="node"><title>Node1</title>
<polygon fill="#bfbfbf" stroke="black" points="68.5,-65.5 68.5,-83.5 136.5,-83.5 136.5,-65.5 68.5,-65.5"/>
<text text-anchor="middle" x="102.5" y="-72.3" font-family="Helvetica,sans-Serif" font-size="9.00">SRRender.h</text>
</g>
<!-- Node2 -->
<g id="node2" class="node"><title>Node2</title>
<polygon fill="white" stroke="#bfbfbf" points="0,-0.5 0,-28.5 107,-28.5 107,-0.5 0,-0.5"/>
<text text-anchor="start" x="8" y="-17.3" font-family="Helvetica,sans-Serif" font-size="9.00">BacktraceException</text>
<text text-anchor="middle" x="53.5" y="-7.3" font-family="Helvetica,sans-Serif" font-size="9.00">/BacktraceException.h</text>
</g>
<!-- Node1&#45;&gt;Node2 -->
<g id="edge1" class="edge"><title>Node1&#45;&gt;Node2</title>
<path fill="none" stroke="midnightblue" d="M95.6868,-65.4353C89.3789,-57.9689 79.7216,-46.5379 71.238,-36.496"/>
<polygon fill="midnightblue" stroke="midnightblue" points="73.8995,-34.2229 64.7723,-28.8428 68.5523,-38.7404 73.8995,-34.2229"/>
</g>
<!-- Node3 -->
<g id="node3" class="node"><title>Node3</title>
<polygon fill="white" stroke="#bfbfbf" points="125,-5.5 125,-23.5 180,-23.5 180,-5.5 125,-5.5"/>
<text text-anchor="middle" x="152.5" y="-12.3" font-family="Helvetica,sans-Serif" font-size="9.00">armadillo</text>
</g>
<!-- Node1&#45;&gt;Node3 -->
<g id="edge2" class="edge"><title>Node1&#45;&gt;Node3</title>
<path fill="none" stroke="midnightblue" d="M109.452,-65.4353C116.979,-56.7043 129.179,-42.5523 138.673,-31.5395"/>
<polygon fill="midnightblue" stroke="midnightblue" points="141.404,-33.7312 145.283,-23.8718 136.103,-29.1606 141.404,-33.7312"/>
</g>
</g>
</svg>
